<svg width="22" height="22" viewBox="0 0 22 22" fill="none" xmlns="http://www.w3.org/2000/svg">
<path d="M1.66675 18C1.66675 16.7623 2.15841 15.5753 3.03358 14.7001C3.90875 13.825 5.09574 13.3333 6.33341 13.3333H15.6667C16.9044 13.3333 18.0914 13.825 18.9666 14.7001C19.8417 15.5753 20.3334 16.7623 20.3334 18C20.3334 18.6188 20.0876 19.2123 19.65 19.6499C19.2124 20.0875 18.6189 20.3333 18.0001 20.3333H4.00008C3.38124 20.3333 2.78775 20.0875 2.35017 19.6499C1.91258 19.2123 1.66675 18.6188 1.66675 18Z" stroke="black" stroke-width="2" stroke-linejoin="round"/>
<path d="M11 8.66666C12.933 8.66666 14.5 7.09965 14.5 5.16666C14.5 3.23366 12.933 1.66666 11 1.66666C9.067 1.66666 7.5 3.23366 7.5 5.16666C7.5 7.09965 9.067 8.66666 11 8.66666Z" stroke="black" stroke-width="2"/>
</svg>
